<svg xmlns="http://www.w3.org/2000/svg" viewBox="0 0 900 700">
  <!-- Background -->
  <rect width="900" height="700" fill="#f8fafc" rx="10" ry="10"/>
  
  <!-- Title -->
  <text x="450" y="40" font-family="Arial" font-size="24" font-weight="bold" text-anchor="middle" fill="#0f172a">QuickPost System Design Architecture</text>
  
  <!-- Client Layer -->
  <rect x="50" y="80" width="800" height="100" rx="10" ry="10" fill="#dbeafe" stroke="#3b82f6" stroke-width="2"/>
  <text x="450" y="110" font-family="Arial" font-size="18" font-weight="bold" text-anchor="middle" fill="#1e40af">Client Layer</text>
  
  <!-- Client Component - Web Browser Only -->
  <rect x="350" y="130" width="200" height="40" rx="5" ry="5" fill="#bfdbfe" stroke="#3b82f6" stroke-width="1"/>
  <text x="450" y="155" font-family="Arial" font-size="14" text-anchor="middle" fill="#1e3a8a">Web Browser</text>
  
  <!-- Next.js Layer -->
  <rect x="50" y="210" width="800" height="180" rx="10" ry="10" fill="#e0f2fe" stroke="#0ea5e9" stroke-width="2"/>
  <text x="450" y="240" font-family="Arial" font-size="18" font-weight="bold" text-anchor="middle" fill="#0369a1">Next.js Application Layer</text>
  
  <!-- Next.js Components -->
  <rect x="80" y="270" width="150" height="100" rx="5" ry="5" fill="#bae6fd" stroke="#0ea5e9" stroke-width="1"/>
  <text x="155" y="290" font-family="Arial" font-size="14" font-weight="bold" text-anchor="middle" fill="#0c4a6e">Pages/App Router</text>
  <text x="155" y="315" font-family="Arial" font-size="12" text-anchor="middle" fill="#0c4a6e">- Dashboard</text>
  <text x="155" y="335" font-family="Arial" font-size="12" text-anchor="middle" fill="#0c4a6e">- Profile</text>
  <text x="155" y="355" font-family="Arial" font-size="12" text-anchor="middle" fill="#0c4a6e">- Account</text>
  
  <rect x="250" y="270" width="150" height="100" rx="5" ry="5" fill="#bae6fd" stroke="#0ea5e9" stroke-width="1"/>
  <text x="325" y="290" font-family="Arial" font-size="14" font-weight="bold" text-anchor="middle" fill="#0c4a6e">Components</text>
  <text x="325" y="315" font-family="Arial" font-size="12" text-anchor="middle" fill="#0c4a6e">- UI Components</text>
  <text x="325" y="335" font-family="Arial" font-size="12" text-anchor="middle" fill="#0c4a6e">- Post Feed</text>
  <text x="325" y="355" font-family="Arial" font-size="12" text-anchor="middle" fill="#0c4a6e">- Media Viewer</text>
  
  <rect x="420" y="270" width="150" height="100" rx="5" ry="5" fill="#bae6fd" stroke="#0ea5e9" stroke-width="1"/>
  <text x="495" y="290" font-family="Arial" font-size="14" font-weight="bold" text-anchor="middle" fill="#0c4a6e">Hooks</text>
  <text x="495" y="315" font-family="Arial" font-size="12" text-anchor="middle" fill="#0c4a6e">- useAuth</text>
  <text x="495" y="335" font-family="Arial" font-size="12" text-anchor="middle" fill="#0c4a6e">- useFeed</text>
  <text x="495" y="355" font-family="Arial" font-size="12" text-anchor="middle" fill="#0c4a6e">- useSearch</text>
  
  <rect x="590" y="270" width="230" height="100" rx="5" ry="5" fill="#bae6fd" stroke="#0ea5e9" stroke-width="1"/>
  <text x="705" y="290" font-family="Arial" font-size="14" font-weight="bold" text-anchor="middle" fill="#0c4a6e">NextAuth</text>
  <text x="705" y="315" font-family="Arial" font-size="12" text-anchor="middle" fill="#0c4a6e">- Authentication</text>
  <text x="705" y="335" font-family="Arial" font-size="12" text-anchor="middle" fill="#0c4a6e">- Session Management</text>
  <text x="705" y="355" font-family="Arial" font-size="12" text-anchor="middle" fill="#0c4a6e">- Authorization</text>
  
  <!-- API Layer -->
  <rect x="50" y="420" width="800" height="100" rx="10" ry="10" fill="#dbeafe" stroke="#2563eb" stroke-width="2"/>
  <text x="450" y="450" font-family="Arial" font-size="18" font-weight="bold" text-anchor="middle" fill="#1e40af">API Layer</text>
  
  <!-- API Components -->
  <rect x="80" y="470" width="150" height="40" rx="5" ry="5" fill="#bfdbfe" stroke="#2563eb" stroke-width="1"/>
  <text x="155" y="495" font-family="Arial" font-size="14" text-anchor="middle" fill="#1e3a8a">Next.js API Routes</text>
  
  <rect x="250" y="470" width="150" height="40" rx="5" ry="5" fill="#bfdbfe" stroke="#2563eb" stroke-width="1"/>
  <text x="325" y="495" font-family="Arial" font-size="14" text-anchor="middle" fill="#1e3a8a">Auth API</text>
  
  <rect x="420" y="470" width="150" height="40" rx="5" ry="5" fill="#bfdbfe" stroke="#2563eb" stroke-width="1"/>
  <text x="495" y="495" font-family="Arial" font-size="14" text-anchor="middle" fill="#1e3a8a">Prisma Client</text>
  
  <rect x="590" y="470" width="230" height="40" rx="5" ry="5" fill="#bfdbfe" stroke="#2563eb" stroke-width="1"/>
  <text x="705" y="495" font-family="Arial" font-size="14" text-anchor="middle" fill="#1e3a8a">Batch Processing Service</text>
  
  <!-- Data Storage Layer -->
  <rect x="50" y="550" width="800" height="120" rx="10" ry="10" fill="#f0fdf4" stroke="#16a34a" stroke-width="2"/>
  <text x="450" y="580" font-family="Arial" font-size="18" font-weight="bold" text-anchor="middle" fill="#166534">Data Storage Layer</text>
  
  <!-- Storage Components - Redis removed, others centered better -->
  <rect x="200" y="610" width="200" height="40" rx="5" ry="5" fill="#dcfce7" stroke="#16a34a" stroke-width="1"/>
  <text x="300" y="635" font-family="Arial" font-size="14" text-anchor="middle" fill="#14532d">PostgreSQL Database</text>
  
  <rect x="500" y="610" width="200" height="40" rx="5" ry="5" fill="#dcfce7" stroke="#16a34a" stroke-width="1"/>
  <text x="600" y="635" font-family="Arial" font-size="14" text-anchor="middle" fill="#14532d">AWS S3 (Media Storage)</text>
  
  <!-- Connecting Lines -->
  <!-- Client to Next.js -->
  <line x1="450" y1="170" x2="450" y2="210" stroke="#3b82f6" stroke-width="2" stroke-dasharray="5,5"/>
  
  <!-- Next.js to API -->
  <line x1="155" y1="370" x2="155" y2="420" stroke="#0ea5e9" stroke-width="2" stroke-dasharray="5,5"/>
  <line x1="325" y1="370" x2="325" y2="420" stroke="#0ea5e9" stroke-width="2" stroke-dasharray="5,5"/>
  <line x1="495" y1="370" x2="495" y2="420" stroke="#0ea5e9" stroke-width="2" stroke-dasharray="5,5"/>
  <line x1="705" y1="370" x2="705" y2="420" stroke="#0ea5e9" stroke-width="2" stroke-dasharray="5,5"/>
  
  <!-- API to Data Storage -->
  <line x1="155" y1="510" x2="300" y2="610" stroke="#2563eb" stroke-width="2" stroke-dasharray="5,5"/>
  <line x1="325" y1="510" x2="300" y2="610" stroke="#2563eb" stroke-width="2" stroke-dasharray="5,5"/>
  <line x1="495" y1="510" x2="300" y2="610" stroke="#2563eb" stroke-width="2" stroke-dasharray="5,5"/>
  
  <line x1="705" y1="510" x2="600" y2="610" stroke="#2563eb" stroke-width="2" stroke-dasharray="5,5"/>
  <line x1="495" y1="510" x2="600" y2="610" stroke="#2563eb" stroke-width="2" stroke-dasharray="5,5"/>
</svg>